<svg width="56" height="57" viewBox="0 0 56 57" fill="none" xmlns="http://www.w3.org/2000/svg">
<rect y="0.839844" width="56" height="56" rx="8" fill="white" fill-opacity="0.1"/>
<path d="M9.24909 25.9682C9.17534 25.8163 9.12878 25.6594 9.1094 25.4975C9.03815 24.9172 8.80565 24.3669 8.74471 23.7922C8.72128 23.5766 8.58909 23.42 8.58628 23.2044C8.58253 22.896 8.4644 22.6203 8.40628 22.3185C8.34003 21.9703 8.25221 21.6047 8.14284 21.2216C8.05565 20.9141 8.07815 20.63 7.96096 20.3488C7.84659 20.075 7.89909 19.7966 7.78284 19.5078C7.68628 19.2688 7.72471 19.0232 7.6319 18.7822C7.61878 18.7485 7.64784 18.7138 7.68346 18.7213C7.9244 18.7719 8.06034 18.6491 8.27221 18.5835C8.89003 18.395 9.51065 18.2235 10.1078 18.0313C11.3603 17.6263 12.7532 17.191 14.2863 16.7253C14.4353 16.6803 14.6097 16.5669 14.6491 16.4066C14.7572 15.9591 14.8275 15.5425 14.86 15.1569C14.8713 15.0188 14.9035 14.89 14.9566 14.7707C15.0381 14.585 15.0175 14.3835 15.0569 14.1866C15.16 13.6797 15.255 13.1572 15.3419 12.6191C15.3894 12.3222 15.446 12.0388 15.5116 11.7688C15.5428 11.6388 15.5591 11.4994 15.5603 11.3507C15.5613 11.1941 15.6025 11.0638 15.6616 10.9222C15.7244 10.7675 15.7281 10.6147 15.7272 10.4497C15.7266 10.3966 15.7528 10.3697 15.806 10.3691C17.886 10.3472 19.4172 10.3603 20.3997 10.4085C21.2653 10.451 22.1566 10.4613 23.0735 10.4394C23.455 10.43 23.8947 10.116 24.2003 9.86753C24.626 9.52159 25.0928 9.27597 25.4903 8.92441C25.8503 8.60566 26.2582 8.37034 26.6294 8.08441C27.1725 7.66691 27.7747 7.21878 28.436 6.74003C28.4932 6.69878 28.5672 6.69128 28.631 6.71941C28.8185 6.80191 29.0038 6.91253 29.1869 7.05128C29.5619 7.33566 29.9672 7.65722 30.4028 8.01597C31.1313 8.61503 31.9244 9.19722 32.68 9.80566C33.1244 10.1632 33.635 10.5472 34.2119 10.9578C34.3094 11.0272 34.4131 11.0619 34.5231 11.0619C36.45 11.0657 38.5816 11.0657 40.9178 11.0619C40.9616 11.0619 41.005 11.06 41.0481 11.0563C41.2275 11.0419 41.32 11.1438 41.3256 11.3619C41.3306 11.5413 41.366 11.7044 41.4316 11.8513C41.4866 11.9738 41.515 12.0994 41.5169 12.2282C41.5225 12.5338 41.6725 12.7794 41.6866 13.0775C41.7016 13.4057 41.8535 13.6822 41.8647 14.0113C41.8778 14.3882 42.0231 14.7388 42.0503 15.126C42.0681 15.3847 42.2031 15.6013 42.2097 15.8638C42.2191 16.1966 42.3897 16.4647 42.3897 16.7957C42.3897 16.9669 42.4356 17.1557 42.5275 17.3619C42.6006 17.526 42.6494 17.5888 42.821 17.6703C43.1491 17.8253 43.4835 17.9822 43.8241 18.141C43.9141 18.1828 44.0035 18.2247 44.0922 18.2666C44.6903 18.5472 45.2697 18.8228 45.8303 19.0935C46.3956 19.3663 47.0003 19.5988 47.5647 19.895C47.9078 20.0757 48.25 20.2307 48.5913 20.36C48.7113 20.4057 48.7516 20.4897 48.7122 20.6122C48.6456 20.8222 48.67 21.0341 48.5969 21.246C48.525 21.4553 48.4881 21.6603 48.4863 21.861C48.4825 22.2388 48.3156 22.5688 48.3091 22.9532C48.3044 23.2278 48.1638 23.4519 48.1244 23.7313C48.0794 24.0585 47.9885 24.3585 47.9575 24.6978C47.9219 25.0925 47.756 25.4638 47.7822 25.8744C47.786 25.9275 47.7747 25.9775 47.7485 26.0244C47.6322 26.2332 47.5885 26.466 47.6172 26.7228C47.6219 26.7669 47.6153 26.811 47.6003 26.8522L47.4419 27.276C47.43 27.3078 47.4331 27.3382 47.4513 27.3669C47.8119 27.9357 48.1428 28.5416 48.4441 29.1847C48.5388 29.3872 48.7291 29.6263 48.8294 29.8803C48.9175 30.1028 49.0213 30.3125 49.1406 30.5094C49.3835 30.9097 49.5597 31.3316 49.7875 31.7244C50.0838 32.2325 50.2816 32.7688 50.6088 33.2488C50.6303 33.2807 50.6285 33.3219 50.6031 33.351C50.3125 33.6878 50.0338 33.97 49.7669 34.1975C49.4419 34.4738 49.1538 34.7378 48.9025 34.9897C48.4722 35.42 48.0325 35.9178 47.5488 36.305C47.351 36.4644 47.2197 36.6528 47.0294 36.8197C46.6156 37.1841 46.1663 37.6197 45.6813 38.1266C45.5925 38.2197 45.5306 38.3335 45.4956 38.4678C45.4525 38.636 45.4591 38.7832 45.5153 38.9094C45.5294 38.9422 45.5294 38.9797 45.5144 39.0125C45.4216 39.2085 45.5247 39.3847 45.5247 39.5872C45.5278 41.1178 45.5297 42.6669 45.5303 44.2344C45.5303 44.4847 45.626 44.6975 45.6194 44.9507C45.6188 44.9857 45.6019 45.0091 45.5688 45.021C45.4928 45.0491 45.4131 45.0228 45.3381 45.0407C45.0503 45.111 44.7653 45.2066 44.4672 45.2169C44.271 45.2238 44.0735 45.2582 43.8747 45.32C43.6356 45.395 43.4031 45.3688 43.1669 45.4307C42.9288 45.4925 42.6822 45.5347 42.4272 45.5572C42.0606 45.59 41.7485 45.6922 41.3931 45.7447C41.0556 45.7944 40.7472 45.8938 40.4022 45.9153C40.2291 45.926 40.0569 45.9482 39.8856 45.9819C39.2888 46.1 38.7041 46.1972 38.1316 46.2735C37.8928 46.3047 37.6931 46.4303 37.5325 46.6503C36.9194 47.4903 36.2941 48.316 35.6566 49.1272C35.1775 49.7366 34.7772 50.3553 34.3028 50.9525C34.2681 50.9966 34.2072 51.0097 34.1575 50.9853C33.4406 50.6278 32.725 50.2847 32.0106 49.956C31.0594 49.5185 29.991 49.0075 28.8053 48.4232C28.4885 48.2675 28.0891 48.0491 27.7338 48.2432C27.4066 48.4222 27.041 48.5197 26.696 48.666C25.4853 49.1778 24.2572 49.6778 23.0116 50.166C22.7791 50.2572 22.466 50.4016 22.0722 50.5991C21.9066 50.6822 21.7588 50.636 21.6288 50.4603C21.495 50.2803 21.3628 50.1053 21.2322 49.9353C20.3453 48.781 19.4769 47.6732 18.6269 46.6119C18.2566 46.1497 17.9172 45.6303 17.4981 45.1925C17.1953 44.8757 16.7116 44.9928 16.331 44.9244C16.1878 44.8988 16.0431 44.8816 15.8969 44.8728C14.2938 44.7791 12.8894 44.6669 11.6838 44.5363C11.4207 44.5082 11.1638 44.5019 10.9132 44.5175C10.8841 44.5194 10.8597 44.4978 10.8588 44.4688C10.765 42.1063 10.6413 39.7663 10.6769 37.385C10.6863 36.6997 10.601 36.2 10.0722 35.7753C9.79034 35.5485 9.49378 35.2985 9.18253 35.0253C8.2719 34.2266 7.35409 33.4282 6.42909 32.63C6.33971 32.5525 6.25003 32.471 6.16003 32.3853C5.95753 32.1903 5.72221 32.0319 5.52159 31.8369C5.49596 31.8119 5.49315 31.7844 5.51315 31.7544C6.1269 30.8182 6.72221 29.9213 7.29909 29.0638C7.96003 28.0794 8.63878 27.1138 9.2444 26.0882C9.26753 26.0494 9.26909 26.0094 9.24909 25.9682Z" fill="#2C96EA"/>
<path d="M25.2906 32.753C25.3438 32.7074 25.3963 32.6555 25.4481 32.5974C28.1556 29.5468 30.8747 26.4855 33.6053 23.4136C33.6535 23.3593 33.7038 23.3083 33.7563 23.2608C33.8469 23.1777 33.9378 23.1774 34.0291 23.2599L36.4038 25.3983C36.491 25.4771 36.4994 25.6111 36.4235 25.7011L25.9938 37.9674C25.9169 38.0574 25.7828 38.0696 25.691 37.9955L18.5078 32.1633C18.3935 32.0702 18.3816 31.9655 18.4722 31.8493L20.3885 29.3939C20.4588 29.3049 20.5872 29.288 20.6781 29.3555L25.2363 32.7549C25.2522 32.7671 25.2756 32.7671 25.2906 32.753Z" fill="white"/>
</svg>
