<svg width="41" height="40" viewBox="0 0 41 40" fill="none" xmlns="http://www.w3.org/2000/svg">
<path d="M0.5 20C0.5 8.9543 9.4543 0 20.5 0C31.5457 0 40.5 8.9543 40.5 20C40.5 31.0457 31.5457 40 20.5 40C9.4543 40 0.5 31.0457 0.5 20Z" fill="white"/>
<mask id="mask0_448_24423" style="mask-type:luminance" maskUnits="userSpaceOnUse" x="0" y="0" width="41" height="40">
<path fill-rule="evenodd" clip-rule="evenodd" d="M0.5 20C0.5 8.9543 9.4543 0 20.5 0C31.5457 0 40.5 8.9543 40.5 20C40.5 31.0457 31.5457 40 20.5 40C9.4543 40 0.5 31.0457 0.5 20Z" fill="white"/>
</mask>
<g mask="url(#mask0_448_24423)">
<path fill-rule="evenodd" clip-rule="evenodd" d="M20.5012 9.33398C17.6042 9.33398 17.2407 9.34665 16.1029 9.39843C14.9673 9.45043 14.1922 9.63021 13.514 9.89399C12.8124 10.1664 12.2173 10.5309 11.6244 11.124C11.0311 11.7169 10.6666 12.312 10.3933 13.0134C10.1288 13.6918 9.94883 14.4671 9.89772 15.6023C9.84683 16.7401 9.8335 17.1038 9.8335 20.0008C9.8335 22.8977 9.84639 23.2601 9.89794 24.3979C9.95016 25.5335 10.1299 26.3086 10.3935 26.9868C10.6662 27.6884 11.0306 28.2835 11.6237 28.8764C12.2164 29.4697 12.8115 29.8351 13.5126 30.1075C14.1913 30.3713 14.9667 30.5511 16.102 30.6031C17.2398 30.6549 17.6031 30.6675 20.4998 30.6675C23.397 30.6675 23.7594 30.6549 24.8972 30.6031C26.0328 30.5511 26.8088 30.3713 27.4875 30.1075C28.1888 29.8351 28.783 29.4697 29.3757 28.8764C29.969 28.2835 30.3335 27.6884 30.6068 26.9871C30.869 26.3086 31.049 25.5333 31.1024 24.3981C31.1535 23.2604 31.1668 22.8977 31.1668 20.0008C31.1668 17.1038 31.1535 16.7403 31.1024 15.6025C31.049 14.4669 30.869 13.6918 30.6068 13.0136C30.3335 12.312 29.969 11.7169 29.3757 11.124C28.7824 10.5307 28.189 10.1662 27.4868 9.89399C26.8068 9.63021 26.0312 9.45043 24.8957 9.39843C23.7579 9.34665 23.3956 9.33398 20.4978 9.33398H20.5012ZM19.5443 11.2562C19.7301 11.2559 19.9299 11.256 20.1456 11.2561L20.5012 11.2562C23.3492 11.2562 23.6868 11.2664 24.8114 11.3176C25.8514 11.3651 26.4159 11.5389 26.7919 11.6849C27.2897 11.8782 27.6446 12.1093 28.0177 12.4827C28.391 12.856 28.6221 13.2116 28.8159 13.7094C28.9619 14.0849 29.1359 14.6494 29.1833 15.6894C29.2344 16.8138 29.2455 17.1516 29.2455 19.9983C29.2455 22.845 29.2344 23.1828 29.1833 24.3073C29.1357 25.3473 28.9619 25.9117 28.8159 26.2873C28.6226 26.7851 28.391 27.1395 28.0177 27.5126C27.6443 27.886 27.2899 28.1171 26.7919 28.3104C26.4163 28.4571 25.8514 28.6304 24.8114 28.678C23.687 28.7291 23.3492 28.7402 20.5012 28.7402C17.6529 28.7402 17.3154 28.7291 16.1909 28.678C15.1509 28.63 14.5864 28.4562 14.2102 28.3102C13.7124 28.1168 13.3569 27.8857 12.9835 27.5124C12.6102 27.1391 12.3791 26.7844 12.1853 26.2864C12.0393 25.9108 11.8653 25.3464 11.818 24.3064C11.7668 23.1819 11.7566 22.8441 11.7566 19.9957C11.7566 17.1472 11.7668 16.8112 11.818 15.6867C11.8655 14.6467 12.0393 14.0823 12.1853 13.7063C12.3786 13.2085 12.6102 12.8529 12.9835 12.4796C13.3569 12.1062 13.7124 11.8751 14.2102 11.6813C14.5862 11.5347 15.1509 11.3613 16.1909 11.3136C17.1749 11.2691 17.5562 11.2558 19.5443 11.2536V11.2562ZM24.915 14.3069C24.915 13.6 25.4883 13.0274 26.195 13.0274V13.0269C26.9017 13.0269 27.475 13.6003 27.475 14.3069C27.475 15.0136 26.9017 15.5869 26.195 15.5869C25.4883 15.5869 24.915 15.0136 24.915 14.3069ZM20.5009 14.5229C17.4759 14.523 15.0233 16.9757 15.0233 20.0008C15.0233 23.0259 17.476 25.4775 20.5012 25.4775C23.5263 25.4775 25.9781 23.0259 25.9781 20.0008C25.9781 16.9756 23.5261 14.5229 20.5009 14.5229ZM24.0568 20.0008C24.0568 18.037 22.4647 16.4452 20.5012 16.4452C18.5374 16.4452 16.9456 18.037 16.9456 20.0008C16.9456 21.9643 18.5374 23.5564 20.5012 23.5564C22.4647 23.5564 24.0568 21.9643 24.0568 20.0008Z" fill="black"/>
</g>
</svg>
