<svg width="41" height="40" viewBox="0 0 41 40" fill="none" xmlns="http://www.w3.org/2000/svg">
<path d="M20.5 40C31.5457 40 40.5 31.0457 40.5 20C40.5 8.9543 31.5457 0 20.5 0C9.4543 0 0.5 8.9543 0.5 20C0.5 31.0457 9.4543 40 20.5 40Z" fill="black"/>
<path d="M16.8332 29.1673C16.1852 29.1673 16.2953 28.9227 16.0719 28.3057L14.1665 22.035L28.8332 13.334" fill="black"/>
<path d="M16.8335 29.1672C17.3335 29.1672 17.5544 28.9385 17.8335 28.6672L20.5002 26.0742L17.1738 24.0684" fill="white"/>
<path d="M17.1735 24.0676L25.2335 30.0224C26.1533 30.5299 26.8171 30.2672 27.0462 29.1685L30.327 13.708C30.6629 12.3613 29.8137 11.7505 28.9338 12.15L9.66879 19.5785C8.35378 20.1059 8.36144 20.8396 9.42909 21.1665L14.3729 22.7095L25.8184 15.4887C26.3587 15.161 26.8546 15.3372 26.4476 15.6984" fill="white"/>
</svg>
