<svg width="15" height="16" viewBox="0 0 15 16" fill="none" xmlns="http://www.w3.org/2000/svg">
<path d="M2.8407 2.62768C2.62916 2.41614 2.2862 2.41614 2.07467 2.62768C1.86313 2.83921 1.86313 3.18217 2.07467 3.39371L6.73351 8.05255L2.15839 12.6277C1.94685 12.8392 1.94685 13.1822 2.15839 13.3937C2.36992 13.6052 2.71288 13.6052 2.92442 13.3937L7.49954 8.81858L12.0747 13.3937C12.2862 13.6052 12.6292 13.6052 12.8407 13.3937C13.0522 13.1822 13.0522 12.8392 12.8407 12.6277L8.26557 8.05255L12.9244 3.39371C13.136 3.18217 13.136 2.83921 12.9244 2.62768C12.7129 2.41614 12.3699 2.41614 12.1584 2.62768L7.49954 7.28652L2.8407 2.62768Z" fill="#C6BFB7" stroke="#C6BFB7" stroke-width="0.8" stroke-linecap="round"/>
</svg>
