<svg width="16" height="17" viewBox="0 0 16 17" fill="none" xmlns="http://www.w3.org/2000/svg">
<path fill-rule="evenodd" clip-rule="evenodd" d="M14.7028 12.9429C15.3983 11.9019 15.8381 10.7168 15.9931 9.48375C16.0622 8.93386 15.6064 8.48284 15.0522 8.48284C14.498 8.48284 14.0575 8.93548 13.9662 9.4821C13.4901 12.3317 11.0126 14.5035 8.02784 14.5035C4.7026 14.5035 2.00696 11.8079 2.00696 8.48266C2.00696 5.49782 4.17895 3.02027 7.02866 2.54431C7.57524 2.45302 8.02784 2.01255 8.02784 1.4584C8.02784 0.90424 7.57688 0.448544 7.02704 0.517629C5.79392 0.672567 4.60877 1.1124 3.56782 1.80794C2.24764 2.69005 1.21869 3.94383 0.611087 5.41072C0.00347835 6.87762 -0.1555 8.49175 0.154256 10.049C0.464012 11.6062 1.22859 13.0367 2.3513 14.1594C3.47402 15.2821 4.90444 16.0467 6.46169 16.3564C8.01894 16.6662 9.63307 16.5072 11.1 15.8996C12.5669 15.292 13.8206 14.263 14.7028 12.9429Z" fill="#C6BFB7"/>
</svg>
