<svg width="24" height="24" viewBox="0 0 24 24" fill="none" xmlns="http://www.w3.org/2000/svg">
    <path fill-rule="evenodd" clip-rule="evenodd" d="M12 24C18.6274 24 24 18.6274 24 12C24 5.37258 18.6274 0 12 0C5.37258 0 0 5.37258 0 12C0 18.6274 5.37258 24 12 24ZM13.6745 6.70047C13.6745 7.91874 11.6225 8.90635 9.09121 8.90635C6.5599 8.90635 4.50787 7.91874 4.50787 6.70047C4.50787 5.48219 6.5599 4.49458 9.09121 4.49458C11.6225 4.49458 13.6745 5.48219 13.6745 6.70047ZM19.4585 12.2698C19.4585 13.4881 17.4065 14.4757 14.8752 14.4757C12.3439 14.4757 10.2919 13.4881 10.2919 12.2698C10.2919 11.0516 12.3439 10.064 14.8752 10.064C17.4065 10.064 19.4585 11.0516 19.4585 12.2698ZM11.1761 14.6427C10.9436 14.4544 10.6025 14.4903 10.4143 14.7228C10.2261 14.9554 10.262 15.2964 10.4945 15.4847C10.8753 15.793 12.3446 16.8036 14.8714 16.8036C17.3841 16.8036 18.8185 15.8765 19.2801 15.4703C19.5047 15.2727 19.5265 14.9304 19.3289 14.7058C19.1313 14.4812 18.789 14.4594 18.5644 14.657C18.2909 14.8977 17.108 15.7203 14.8714 15.7203C12.649 15.7203 11.4129 14.8343 11.1761 14.6427ZM11.1761 16.8506C10.9436 16.6623 10.6025 16.6982 10.4143 16.9307C10.2261 17.1633 10.262 17.5043 10.4945 17.6926C10.8683 17.9952 12.3822 19.0626 14.916 19.0626C17.445 19.0626 18.8321 18.0725 19.2801 17.6782C19.5047 17.4806 19.5265 17.1383 19.3289 16.9137C19.1313 16.6891 18.789 16.6673 18.5644 16.8649C18.2773 17.1176 17.1362 17.9793 14.916 17.9793C12.7005 17.9793 11.4199 17.0478 11.1761 16.8506ZM4.63034 9.15349C4.81857 8.92097 5.15965 8.88507 5.39216 9.0733C5.62888 9.26493 6.86501 10.1509 9.08746 10.1509C9.38661 10.1509 9.62912 10.3934 9.62912 10.6926C9.62912 10.9918 9.38661 11.2343 9.08746 11.2343C6.56066 11.2343 5.09136 10.2236 4.71053 9.91531C4.47801 9.72708 4.44211 9.386 4.63034 9.15349ZM4.63034 11.3613C4.81857 11.1288 5.15965 11.0929 5.39216 11.2811C5.63588 11.4784 6.91655 12.4099 9.13198 12.4099C9.43114 12.4099 9.67365 12.6524 9.67365 12.9515C9.67365 13.2507 9.43114 13.4932 9.13198 13.4932C6.59817 13.4932 5.08435 12.4258 4.71053 12.1232C4.47801 11.9349 4.44211 11.5938 4.63034 11.3613ZM4.63034 13.6452C4.81857 13.4127 5.15965 13.3768 5.39216 13.565C5.63588 13.7623 6.91655 14.6938 9.13198 14.6938C9.43114 14.6938 9.67365 14.9363 9.67365 15.2354C9.67365 15.5346 9.43114 15.7771 9.13198 15.7771C6.59817 15.7771 5.08435 14.7097 4.71053 14.407C4.47801 14.2188 4.44211 13.8777 4.63034 13.6452Z" fill="#3A3A3A"/>
</svg>
