<svg width="25" height="25" viewBox="0 0 25 25" fill="none" xmlns="http://www.w3.org/2000/svg">
    <path fill-rule="evenodd" clip-rule="evenodd" d="M12.707 24.4799C19.3344 24.4799 24.707 19.1073 24.707 12.4799C24.707 5.85244 19.3344 0.479858 12.707 0.479858C6.07961 0.479858 0.707031 5.85244 0.707031 12.4799C0.707031 19.1073 6.07961 24.4799 12.707 24.4799ZM14.3816 7.18032C14.3816 8.3986 12.3295 9.38621 9.79824 9.38621C7.26693 9.38621 5.21491 8.3986 5.21491 7.18032C5.21491 5.96205 7.26693 4.97444 9.79824 4.97444C12.3295 4.97444 14.3816 5.96205 14.3816 7.18032ZM20.1656 12.7497C20.1656 13.968 18.1135 14.9556 15.5822 14.9556C13.0509 14.9556 10.9989 13.968 10.9989 12.7497C10.9989 11.5314 13.0509 10.5438 15.5822 10.5438C18.1135 10.5438 20.1656 11.5314 20.1656 12.7497ZM11.8832 15.1225C11.6507 14.9343 11.3096 14.9702 11.1214 15.2027C10.9331 15.4352 10.969 15.7763 11.2015 15.9645C11.5824 16.2728 13.0517 17.2835 15.5785 17.2835C18.0911 17.2835 19.5255 16.3564 19.9871 15.9502C20.2117 15.7525 20.2336 15.4103 20.0359 15.1857C19.8383 14.9611 19.496 14.9393 19.2714 15.1369C18.9979 15.3776 17.8151 16.2001 15.5785 16.2001C13.356 16.2001 12.1199 15.3141 11.8832 15.1225ZM11.8832 17.3304C11.6507 17.1422 11.3096 17.1781 11.1214 17.4106C10.9331 17.6431 10.969 17.9842 11.2015 18.1724C11.5754 18.475 13.0892 19.5425 15.623 19.5425C18.152 19.5425 19.5391 18.5523 19.9871 18.158C20.2117 17.9604 20.2336 17.6181 20.0359 17.3936C19.8383 17.169 19.496 17.1471 19.2714 17.3448C18.9843 17.5975 17.8432 18.4591 15.623 18.4591C13.4076 18.4591 12.1269 17.5277 11.8832 17.3304ZM5.33737 9.63334C5.5256 9.40083 5.86668 9.36493 6.09919 9.55315C6.33591 9.74478 7.57204 10.6308 9.79449 10.6308C10.0936 10.6308 10.3362 10.8733 10.3362 11.1725C10.3362 11.4716 10.0936 11.7141 9.79449 11.7141C7.26769 11.7141 5.79839 10.7035 5.41756 10.3952C5.18504 10.2069 5.14914 9.86586 5.33737 9.63334ZM5.33737 11.8412C5.5256 11.6087 5.86668 11.5728 6.09919 11.761C6.34291 11.9583 7.62358 12.8897 9.83901 12.8897C10.1382 12.8897 10.3807 13.1322 10.3807 13.4314C10.3807 13.7305 10.1382 13.9731 9.83901 13.9731C7.30521 13.9731 5.79139 12.9056 5.41756 12.603C5.18504 12.4148 5.14914 12.0737 5.33737 11.8412ZM5.33737 14.1251C5.5256 13.8926 5.86668 13.8567 6.09919 14.0449C6.34291 14.2422 7.62358 15.1736 9.83901 15.1736C10.1382 15.1736 10.3807 15.4161 10.3807 15.7153C10.3807 16.0144 10.1382 16.2569 9.83901 16.2569C7.30521 16.2569 5.79139 15.1895 5.41756 14.8869C5.18504 14.6987 5.14914 14.3576 5.33737 14.1251Z" fill="white"/>
</svg>
