<svg width="18" height="19" viewBox="0 0 18 19" fill="none" xmlns="http://www.w3.org/2000/svg">
    <path fill-rule="evenodd" clip-rule="evenodd" d="M14.15 19.0032C15.8069 19.0032 17.15 17.66 17.15 16.0032V6.00317C17.15 4.5111 16.0608 3.27344 14.6341 3.04202C14.614 2.84763 14.5753 2.65832 14.5197 2.47608C14.415 2.13271 14.0518 1.93925 13.7084 2.04398C13.365 2.14871 13.1716 2.51197 13.2763 2.85534C13.291 2.90367 13.3037 2.95298 13.3142 3.00317H6.15003C4.49318 3.00317 3.15003 4.34632 3.15003 6.00317V15.6673C3.10019 15.6569 3.05123 15.6443 3.00324 15.6296C2.65987 15.5249 2.29662 15.7184 2.19189 16.0617C2.08716 16.4051 2.28061 16.7683 2.62398 16.8731C2.84628 16.9409 3.0791 16.9835 3.31885 16.9978C3.72916 18.1658 4.84181 19.0032 6.15003 19.0032H14.15ZM6.15003 17.7032H14.15C15.0889 17.7032 15.85 16.9421 15.85 16.0032V6.00317C15.85 5.06429 15.0889 4.30317 14.15 4.30317H6.15003C5.21115 4.30317 4.45003 5.06429 4.45003 6.00317V16.0032C4.45003 16.9421 5.21115 17.7032 6.15003 17.7032Z" fill="#717681"/>
    <path d="M1.87407 14.5005C1.9788 14.8438 1.78534 15.2071 1.44197 15.3118C1.0986 15.4165 0.735349 15.2231 0.63062 14.8797C0.545852 14.6018 0.500488 14.3074 0.500488 14.0037V13.0599C0.500488 12.7009 0.791503 12.4099 1.15049 12.4099C1.50947 12.4099 1.80049 12.7009 1.80049 13.0599V14.0037C1.80049 14.1775 1.82638 14.3441 1.87407 14.5005Z" fill="#717681"/>
    <path d="M1.80049 9.94556C1.80049 10.3045 1.50947 10.5956 1.15049 10.5956C0.791503 10.5956 0.500488 10.3045 0.500488 9.94556V8.05807C0.500488 7.69909 0.791503 7.40807 1.15049 7.40807C1.50947 7.40807 1.80049 7.69909 1.80049 8.05807V9.94556Z" fill="#717681"/>
    <path d="M1.80049 4.94372C1.80049 5.3027 1.50947 5.59371 1.15049 5.59371C0.791503 5.59371 0.500488 5.3027 0.500488 4.94372V3.99997C0.500488 3.63009 0.555715 3.27192 0.658817 2.93389C0.763547 2.59052 1.1268 2.39706 1.47017 2.50179C1.81354 2.60652 2.00699 2.96978 1.90226 3.31315C1.83624 3.52961 1.80049 3.76002 1.80049 3.99997V4.94372Z" fill="#717681"/>
    <path d="M3.46366 1.75175C3.1203 1.85648 2.75704 1.66302 2.65231 1.31965C2.54758 0.976284 2.74103 0.613029 3.0844 0.508299C3.42244 0.405197 3.78061 0.34997 4.15049 0.34997H4.79667C5.15566 0.34997 5.44667 0.640985 5.44667 0.999969C5.44667 1.35896 5.15566 1.64997 4.79667 1.64997H4.15049C3.91054 1.64997 3.68013 1.68572 3.46366 1.75175Z" fill="#717681"/>
    <path d="M12.5239 0.480263C12.8673 0.584991 13.0608 0.948246 12.956 1.29161C12.8513 1.63498 12.488 1.82844 12.1447 1.72371C11.988 1.67592 11.821 1.64997 11.6468 1.64997H10.8786C10.5196 1.64997 10.2286 1.35896 10.2286 0.999969C10.2286 0.640985 10.5196 0.34997 10.8786 0.34997H11.6468C11.9509 0.34997 12.2457 0.39539 12.5239 0.480263Z" fill="#717681"/>
    <path d="M6.92908 1.64997C6.57009 1.64997 6.27908 1.35896 6.27908 0.999969C6.27908 0.640985 6.57009 0.34997 6.92908 0.34997H8.34348C8.70246 0.34997 8.99348 0.640985 8.99348 0.999969C8.99348 1.35896 8.70246 1.64997 8.34348 1.64997H6.92908Z" fill="#717681"/>
</svg>
