<svg width="10" height="13" viewBox="0 0 10 13" fill="none" xmlns="http://www.w3.org/2000/svg">
    <path d="M2.82405 12.5C2.06106 10.8275 2.46264 9.86585 3.065 8.9878C3.70752 7.98432 3.86815 7.02265 3.86815 7.02265C3.86815 7.02265 4.3902 7.69164 4.18941 8.77875C5.07288 7.73345 5.23351 6.06098 5.11303 5.4338C7.12091 6.89721 8.00438 10.1167 6.83981 12.4582C13.0241 8.77874 8.3658 3.30139 7.56264 2.71603C7.84375 3.34321 7.8839 4.3885 7.3217 4.89024C6.39808 1.2108 4.1091 0.5 4.1091 0.5C4.3902 2.38153 3.14532 4.43031 1.94059 5.97735C1.90043 5.22474 1.86027 4.723 1.4587 3.97038C1.37838 5.35017 0.374445 6.43728 0.0933422 7.81707C-0.268076 9.69861 0.374445 11.0366 2.82405 12.5Z" fill="white"/>
</svg>
