<svg width="16" height="16" viewBox="0 0 16 16" fill="none" xmlns="http://www.w3.org/2000/svg">
<path fill-rule="evenodd" clip-rule="evenodd" d="M14.7028 12.4322C15.3983 11.3913 15.8381 10.2062 15.9931 8.97307C16.0622 8.42318 15.6064 7.97216 15.0522 7.97216C14.498 7.97216 14.0575 8.4248 13.9662 8.97142C13.4901 11.821 11.0126 13.9929 8.02784 13.9929C4.7026 13.9929 2.00696 11.2972 2.00696 7.97198C2.00696 4.98714 4.17895 2.50959 7.02866 2.03363C7.57524 1.94234 8.02784 1.50187 8.02784 0.947716C8.02784 0.393559 7.57688 -0.062137 7.02704 0.00694772C5.79392 0.161886 4.60877 0.601719 3.56782 1.29726C2.24764 2.17937 1.21869 3.43315 0.611087 4.90004C0.00347835 6.36694 -0.1555 7.98107 0.154256 9.53831C0.464012 11.0956 1.22859 12.526 2.3513 13.6487C3.47402 14.7714 4.90444 15.536 6.46169 15.8457C8.01894 16.1555 9.63307 15.9965 11.1 15.3889C12.5669 14.7813 13.8206 13.7524 14.7028 12.4322Z" fill="#C6BFB7"/>
</svg>
